# xmcd
#
# Track frame offsets: 
#        150
#        13077
#        27945
#        42736
#        57454
#        71566
#        84172
#        97697
#        112153
#        127086
#        139142
#        150193
#        163530
#        177362
#        200994
#        215201
#        230038
#        244321
#        258367
#        272943
#        286481
#        300316
#        314583
#        326803
#
# Disc length: 4520 seconds
#
# Revision: 2
# Processed by: cddbd v1.5.1PL2 Copyright (c) Steve Scherf et al.
# Submitted via: ExactAudioCopy v0.95b3
#
DISCID=7011a618
DTITLE=Big Bands Boogie - Boogie Woogie vol. 2
DYEAR=2003
DGENRE=Jazz
TTITLE0=Count Basie and His Orchestra - Boogie Woogie (I May Be Wrong)
TTITLE1=Tommy Dorsey and His Orchestra - (Pinetop's) Boogie Woogie
TTITLE2=Benny Goodman and His Orchestra - Roll' Em
TTITLE3=Andy Kirk and His Clouds of Joy - 47th Jive
TTITLE4=Erskine Hawkins and His Orchestra - Gabriel Meets the Duke
TTITLE5=Earl Hines and His Orchestra - Boogie Woogie on St. Louis Blue
TTITLE5=s
TTITLE6=Benny Carter and His Orchestra - Back Bay Boogie
TTITLE7=Bob Crosby and His Orchestra - Honky Tonk Train Blues
TTITLE8=Bob Crosby and His Orchestra - Yancey Dpecial
TTITLE9=Bob Zurke and His Delta Rhythm Boys - Cuban Boogie Woogie
TTITLE10=Count Basie and His Orchestra - Basie Boogie
TTITLE11=Andy Kirk and His Clouds of Joy - Boogie Woogie Cocktail
TTITLE12=Lucky Millinder and His Orchestra - Little John Special
TTITLE13=Will Bradley and His Orchestra - Beat Me Daddy, Eight to the 
TTITLE13=Bar
TTITLE14=Gene Krupa and His Orchestra - Drum Boogie
TTITLE15=Lionel Hampton and His Orchestra - Hamp's Boogie Woogie
TTITLE16=Lionel Hampton and His Orchestra - Tempo's Boogie
TTITLE17=Cab Calloway and His Orchestra - The Calloway Boogie
TTITLE18=Johnny Otis and His Orchestra - Alimony Boogie
TTITLE19=Pete Johnson and His Orchestra - 1280 Stomp
TTITLE20=Lionel Hampton and His Orchestra - Hamp's Boogie Woogie No.2
TTITLE21=Milt Buckner and His Orchestra - Milt's Boogie
TTITLE22=Wynonie Harris - Rock Mr. Blues
TTITLE23=Fats Domino and His Sextet - She's My Baby
EXTD=YEAR: 2003
EXTT0=
EXTT1=
EXTT2=
EXTT3=
EXTT4=
EXTT5=
EXTT6=
EXTT7=
EXTT8=
EXTT9=
EXTT10=
EXTT11=
EXTT12=
EXTT13=
EXTT14=
EXTT15=
EXTT16=
EXTT17=
EXTT18=
EXTT19=
EXTT20=
EXTT21=
EXTT22=
EXTT23=
PLAYORDER=
